<svg width="61" height="61" viewBox="0 0 61 61" fill="none" xmlns="http://www.w3.org/2000/svg">
<path d="M5.54545 0C2.48159 0 0 2.48159 0 5.54545V55.4545C0 58.5184 2.48159 61 5.54545 61H55.4545C58.5184 61 61 58.5184 61 55.4545V5.54545C61 2.48159 58.5184 0 55.4545 0H5.54545ZM17.7844 16.9884H23.2812L33.002 44.342H27.7543L25.4419 37.3452H15.3746L13.0242 44.342H8.0799L17.7844 16.9884ZM20.2647 22.2035L16.5118 33.4785H24.3047L20.5897 22.2035H20.2647ZM44.7915 23.1891C50.7057 23.1891 54.2523 27.1109 54.2523 33.6518V35.1681H39.7713V35.4118C39.885 38.8611 41.8732 41.0223 44.9648 41.0223C47.2938 41.0223 48.9075 40.1701 49.5896 38.6341H54.0411C53.1538 42.4077 49.7177 44.759 44.8294 44.759C38.7266 44.759 35.049 40.7183 35.049 34.0471C35.049 27.376 38.7857 23.1891 44.7915 23.1891ZM44.7752 26.915C41.9692 26.915 39.9983 28.9262 39.7876 31.9568H49.5517C49.4546 28.8874 47.5951 26.915 44.7752 26.915Z" fill="white"/>
</svg>
