<svg width="62" height="60" viewBox="0 0 62 60" fill="none" xmlns="http://www.w3.org/2000/svg">
<path d="M5.57497 0C2.4948 0 0 2.44091 0 5.45455V54.5455C0 57.5591 2.4948 60 5.57497 60H55.7497C58.8299 60 61.3247 57.5591 61.3247 54.5455V5.45455C61.3247 2.44091 58.8299 0 55.7497 0H5.57497ZM43.6525 14.3129C45.3863 14.3129 46.5706 15.3942 46.5706 16.8697C46.5706 18.3451 45.3863 19.4265 43.6525 19.4265C41.9382 19.4265 40.7398 18.3451 40.7398 16.8697C40.7398 15.3942 41.9382 14.3129 43.6525 14.3129ZM21.7228 16.2358H27.2488L37.0213 43.141H31.7458L29.4211 36.2642H19.3055L16.9372 43.141H11.9666L21.7228 16.2358ZM24.2163 21.3601L20.4488 32.4556H28.2777L24.543 21.3601H24.2163ZM41.3114 22.745H46.0153V43.141H41.3114V22.745Z" fill="white"/>
</svg>
