<svg width="61" height="60" viewBox="0 0 61 60" fill="none" xmlns="http://www.w3.org/2000/svg">
<path d="M31.5654 0.0191662C31.3065 -0.00747326 31.0437 -0.00713666 30.78 0.0251769C29.7222 0.159047 28.7736 0.763027 28.1074 1.7232C26.7311 3.70664 27.0044 6.61909 28.7166 8.21476L33.0974 12.299H10.5659C8.37065 12.299 6.58422 14.3702 6.58422 16.9153C6.58422 19.4603 8.37065 21.5315 10.5659 21.5315H20.4344L1.53458 39.242C0.675876 40.0468 0.140117 41.1912 0.0233226 42.4638C-0.092145 43.7363 0.223504 44.9875 0.917637 45.983C1.61177 46.9786 2.59889 47.5997 3.69649 47.7352C4.7941 47.869 5.87327 47.5031 6.73197 46.6983L15.924 38.085C16.6924 50.3041 26.4964 60 38.4374 60C50.8787 60 61 49.4735 61 36.5342C61 28.5389 57.139 21.1797 50.6648 16.8281L33.7066 1.01995C33.0844 0.440613 32.3421 0.0990847 31.5654 0.0191662ZM38.4374 23.0702C45.023 23.0702 50.3823 28.2465 50.3823 34.6108C50.3823 40.975 45.023 46.1513 38.4374 46.1513C31.8517 46.1513 26.4924 40.975 26.4924 34.6108C26.4924 28.2465 31.8517 23.0702 38.4374 23.0702ZM38.4374 26.1477C36.3254 26.1477 34.2999 26.9583 32.8065 28.4011C31.3131 29.844 30.4741 31.8009 30.4741 33.8414C30.4741 35.8819 31.3131 37.8388 32.8065 39.2817C34.2999 40.7245 36.3254 41.5351 38.4374 41.5351C40.5494 41.5351 42.5748 40.7245 44.0683 39.2817C45.5617 37.8388 46.4006 35.8819 46.4006 33.8414C46.4006 31.8009 45.5617 29.844 44.0683 28.4011C42.5748 26.9583 40.5494 26.1477 38.4374 26.1477Z" fill="white"/>
</svg>
