<svg width="60" height="60" viewBox="0 0 60 60" fill="none" xmlns="http://www.w3.org/2000/svg">
<path d="M32.6623 19.7688H21.3658C15.9068 19.7688 11.4814 15.3434 11.4814 9.88439C11.4814 4.42538 15.9068 0 21.3658 0H32.6623V19.7688Z" fill="#E64A19"/>
<path d="M31.2502 39.5376H21.3658C15.9068 39.5376 11.4814 35.1122 11.4814 29.6532C11.4814 24.1942 15.9068 19.7688 21.3658 19.7688H31.2502V39.5376Z" fill="#7C4DFF"/>
<path d="M21.3658 59.3064C15.9068 59.3064 11.4814 54.881 11.4814 49.422C11.4814 43.963 15.9068 39.5376 21.3658 39.5376H31.2502V49.422C31.2502 54.881 26.8248 59.3064 21.3658 59.3064Z" fill="#66BB6A"/>
<path d="M41.1343 19.7688H31.2499V0H41.1343C46.5933 0 51.0187 4.42538 51.0187 9.88439C51.0187 15.3434 46.5933 19.7688 41.1343 19.7688Z" fill="#FF7043"/>
<path d="M41.1343 39.5376C46.5933 39.5376 51.0187 35.1122 51.0187 29.6532C51.0187 24.1942 46.5933 19.7688 41.1343 19.7688C35.6753 19.7688 31.2499 24.1942 31.2499 29.6532C31.2499 35.1122 35.6753 39.5376 41.1343 39.5376Z" fill="#29B6F6"/>
</svg>
