<svg width="61" height="60" viewBox="0 0 61 60" fill="none" xmlns="http://www.w3.org/2000/svg">
<path d="M25.8888 0.164397C13.4032 2.59171 4.28785 10.7598 0.917489 22.5111C-0.2315 26.4796 -0.308099 34.5706 0.725991 38.462C2.29627 44.3954 6.39433 50.8297 11.0669 54.6441C14.1692 57.187 19.8758 60.1152 21.4461 59.9611L22.6334 59.8455L22.7483 56.3779L22.8632 52.9103H19.6843C15.816 52.9103 14.2841 52.1397 12.9053 49.5968C11.4116 46.7457 10.2243 45.166 9.2285 44.6266C7.92632 43.9331 7.73482 43.124 8.84551 42.8543C10.2626 42.5075 12.4074 43.779 14.0543 46.0137C15.8543 48.441 17.1948 49.2501 19.5311 49.2501C21.7908 49.2501 23.2079 48.6721 23.2079 47.786C23.2079 47.3622 23.6292 46.4375 24.1271 45.7054L25.0079 44.3569L22.7483 43.9331C17.9225 43.0469 14.3224 40.6196 12.7138 37.152C11.5265 34.6477 10.7988 30.1398 11.1435 27.7125C11.4499 25.6705 12.7138 22.5111 13.4798 21.8561C13.8628 21.5479 13.9394 20.7388 13.7862 18.6582C13.633 17.0015 13.7096 15.2677 14.016 14.2274L14.4373 12.5707L16.0075 12.7633C16.8884 12.8789 18.8417 13.6109 20.3354 14.3815C23.0164 15.7686 23.1696 15.8071 25.0845 15.3833C27.6506 14.8439 33.2041 14.8439 35.9616 15.3833C38.0681 15.8071 38.183 15.8071 40.7491 14.4586C43.7748 12.8404 46.3025 12.301 46.8004 13.0715C46.9919 13.3798 47.1451 15.2677 47.1834 17.3097C47.2217 20.5076 47.3366 21.2011 48.2175 22.7037C49.6729 25.2466 50.1708 27.6739 49.9027 31.2186C49.3282 38.3079 45.6131 42.469 38.566 43.8946L36.2297 44.3569L37.0723 45.7439C37.8766 46.9769 37.9532 47.7089 38.0681 53.1029C38.1447 56.4164 38.3745 59.3061 38.6043 59.5758C39.2937 60.3849 40.6342 60.0767 44.1194 58.3043C52.0092 54.3359 57.6009 47.5548 60.0521 39.0014C61.316 34.6091 61.316 26.9034 60.0521 22.5111C57.0647 12.1083 49.0984 4.01728 38.9107 1.08909C36.0765 0.279983 28.2251 -0.297948 25.8888 0.164397Z" fill="white"/>
</svg>
