<svg width="62" height="60" viewBox="0 0 62 60" fill="none" xmlns="http://www.w3.org/2000/svg">
<path d="M5.57497 0C2.4948 0 0 2.44091 0 5.45455V54.5455C0 57.5591 2.4948 60 5.57497 60H55.7497C58.8299 60 61.3247 57.5591 61.3247 54.5455V5.45455C61.3247 2.44091 58.8299 0 55.7497 0H5.57497ZM41.0011 15.6925H45.7268V43.9719H41.1535V40.7493H40.8269C39.645 42.9857 37.2444 44.3075 34.3482 44.3075C29.0687 44.3075 25.7734 40.2488 25.7734 33.7607C25.7734 27.3107 29.0882 23.2457 34.3482 23.2457C37.2053 23.2457 39.5733 24.5889 40.6799 26.8253H41.0011V15.6925ZM15.5979 17.0721H20.5142V43.9719H15.5979V17.0721ZM35.8181 27.1768C32.5986 27.1768 30.6134 29.6748 30.6134 33.7766C30.6134 37.8975 32.5791 40.3764 35.8181 40.3764C39.0767 40.3764 41.0555 37.8785 41.0555 33.7766C41.0555 29.713 39.0572 27.1768 35.8181 27.1768Z" fill="white"/>
</svg>
