<svg width="61" height="61" viewBox="0 0 61 61" fill="none" xmlns="http://www.w3.org/2000/svg">
<path d="M4.80925 0.233406C2.64317 0.819907 0.731916 2.88541 0.222249 5.15491C0.0183826 6.04742 -0.032584 13.8249 0.0183826 31.2925L0.0908706 54.8665C0.0934753 55.7136 0.29563 56.5481 0.680949 57.3025C1.49642 58.8325 2.2864 59.6485 3.73895 60.388C4.52619 60.7903 5.39763 61 6.28168 61H30.5474H54.8131C55.6972 61 56.5686 60.7903 57.3559 60.388C58.8084 59.6485 59.5984 58.8325 60.4139 57.3025C60.7991 56.5483 61 55.7134 61 54.8665V30.5275V6.24545C61 5.36102 60.7904 4.48919 60.3884 3.70141C59.6494 2.24791 58.8339 1.45741 57.3049 0.641407C56.5511 0.255874 55.7168 0.0540163 54.8701 0.0523047L30.9297 0.00390607C15.3848 -0.021594 5.36988 0.0804056 4.80925 0.233406ZM25.3743 17.3949C27.9481 18.1599 29.8594 20.1999 30.7258 23.1324C31.5922 26.0394 31.0316 29.584 29.4007 31.471C27.6168 33.562 25.3488 34.3525 21.0676 34.3525C19.8291 34.3525 18.8251 35.3565 18.8251 36.595V38.1775V40.9016C18.8251 41.6101 18.5617 42.2933 18.0861 42.8185C17.4235 43.558 17.1941 43.66 16.0219 43.66C14.8497 43.66 14.6203 43.558 13.9578 42.8185C13.4821 42.2933 13.2187 41.6101 13.2187 40.9016V30.3745V19.9722C13.2187 19.1873 13.5304 18.4346 14.0852 17.8794C14.6399 17.3243 15.3926 17.0124 16.1773 17.0124H19.5131C22.826 17.0124 24.4314 17.1144 25.3743 17.3949ZM44.1555 23.9994C46.2197 24.6114 47.8761 26.2689 47.8761 27.697C47.8761 27.9775 47.5703 28.5385 47.2135 28.972C46.6529 29.6605 46.398 29.7625 45.3023 29.7625C44.0026 29.7625 43.6968 29.5585 42.703 28.1304C41.7601 26.7789 39.4666 27.5694 39.4666 29.227C39.4666 30.196 40.4349 30.961 43.0852 32.0575C46.3216 33.3835 47.7741 34.684 48.3603 36.775C49.1248 39.58 48.1309 41.8495 45.4806 43.201C44.4613 43.7365 43.6968 43.8895 41.9894 43.9915C39.1353 44.1445 37.5298 43.6345 35.8479 42.0535C34.8031 41.0845 34.6247 40.7785 34.6247 39.9625C34.6247 37.336 37.8611 36.5965 39.0843 38.9425C39.5685 39.886 40.1801 40.2175 41.4033 40.2175C42.5246 40.2175 43.5439 39.4015 43.5439 38.509C43.5439 37.744 42.7794 36.979 41.3014 36.367C37.1986 34.6075 35.6696 33.511 34.8541 31.7005C33.5035 28.7169 35.1344 25.1469 38.3708 24.0759C39.8998 23.5659 42.5755 23.5404 44.1555 23.9994Z" fill="white"/>
<path d="M18.8752 25.6059L18.9516 29.8899H21.1177C24.9402 29.8899 25.8321 29.0229 25.6538 25.4274C25.5263 22.1634 24.6089 21.3474 21.0413 21.3474H18.8242L18.8752 25.6059Z" fill="white"/>
</svg>
