<svg width="61" height="60" viewBox="0 0 61 60" fill="none" xmlns="http://www.w3.org/2000/svg">
<path d="M27.1804 0.12656C16.8497 1.33778 8.18659 7.22387 3.35694 16.2974C1.01791 20.6748 0 24.8609 0 29.9608C0 33.6369 0.411495 36.1444 1.53769 39.4805C3.16202 44.3041 5.73928 48.2778 9.55103 51.8477C13.6876 55.7151 18.3224 58.1375 24.0183 59.4125C26.8122 60.05 32.3999 60.1987 35.3236 59.71C39.0921 59.115 43.5969 57.4788 46.4557 55.7363C53.711 51.2527 58.7356 44.2616 60.5548 36.0169C61.1829 33.1907 61.1396 26.6884 60.4682 23.7134C57.761 11.8775 48.4915 2.91024 36.4715 0.551549C33.8942 0.0415626 29.5627 -0.149682 27.1804 0.12656ZM25.556 15.8511C25.9675 15.9574 28.2849 16.9774 30.7106 18.1461C33.1795 19.3361 35.6268 20.3773 36.3199 20.5048C38.0742 20.866 39.2437 20.6323 40.0233 19.761C40.6298 19.1023 41.1495 17.5511 41.1495 16.4674C41.1495 16.0849 41.3011 16.0424 43.0121 16.0424H44.8963L44.788 17.8911C44.5931 20.951 43.337 23.0122 40.933 24.1809C40.1533 24.5634 39.5036 24.6697 37.576 24.7122C34.5006 24.7972 33.4611 24.4784 29.3894 22.226C25.9459 20.3135 24.2349 19.6548 22.7622 19.6548C20.878 19.6548 19.8168 20.8023 19.1887 23.4372L18.9071 24.6484L17.8026 24.6272C17.1745 24.6059 16.3299 24.5209 15.8967 24.4359L15.117 24.3084L15.2686 22.991C15.8317 17.9336 18.7988 15.1924 23.282 15.5324C24.1266 15.5961 25.1445 15.7449 25.556 15.8511ZM30.3207 25.6896L32.1616 26.3909V37.5256V48.6603L30.0608 48.724L27.9384 48.7878V36.8668C27.9384 27.4746 28.0033 24.9672 28.2199 24.9884C28.3499 24.9884 29.3028 25.3071 30.3207 25.6896Z" fill="white"/>
</svg>
